# xmcd
#
# Track frame offsets:
#	150
#	13365
#	24412
#	35056
#	45797
#	58947
#	70017
#	80789
#	93734
#	105622
#	115945
#	127615
#	138829
#	150892
#	162263
#	174152
#	185413
#	195557
#	207017
#	218386
#
# Disc length: 3089 seconds
#
# Revision: 0
# Processed by: cddbd v1.5.2PL0 Copyright (c) Steve Scherf et al.
# Submitted via: EasyCDDAExtractor 16.0.6.1
#
DISCID=fd0c0f14
DTITLE=Artisti Vari - Country and Western Ladies [CD09)
DYEAR=2014
DGENRE=country
TTITLE0=Kitty Wells and Red Foley - One By One
TTITLE1=Patsy Cline - I Can't Forget
TTITLE2=Skeeter Davis - Give Me Death
TTITLE3=Goldie Hill - Why Don't You Let Me Go
TTITLE4=Patsy Montana - Little Sweetheart Of The Ozarks
TTITLE5=Kitty Wells - I've Kissed You My Last Time
TTITLE6=The Maddox Brothers and Rose - I'll Make Sweet Love To You
TTITLE7=Betty and Red Foley - A Satisfied Mind
TTITLE8=Jean Shepard - I'll Never Be Free
TTITLE9=Wanda Jackson - Please Call Today
TTITLE10=Bonnie Lou - Train Whistle Blues
TTITLE11=Patti Page - Walking The Floor Over You
TTITLE12=Goldie Hill - Make Love To Me
TTITLE13=Kitty Wells - It Wasn't God Who Made Honky Tonk Angels
TTITLE14=Skeeter Davis - Wishful Thinking
TTITLE15=The Maddox Brothers and Rose - Little Wille Waltz
TTITLE16=Patsy Cline - Three Cigarettes (In An Ashtray)
TTITLE17=Patti Page - Don't Read The Letter
TTITLE18=Kitty Wells and Red Foley - Make Believe
TTITLE19=Patsy Montana - Shine On Rocky Mountain Moonlight
EXTD=
EXTT0=
EXTT1=
EXTT2=
EXTT3=
EXTT4=
EXTT5=
EXTT6=
EXTT7=
EXTT8=
EXTT9=
EXTT10=
EXTT11=
EXTT12=
EXTT13=
EXTT14=
EXTT15=
EXTT16=
EXTT17=
EXTT18=
EXTT19=
PLAYORDER=
